<svg width="900" height="200" viewBox="0 0 900 200" fill="none" xmlns="http://www.w3.org/2000/svg">
<g clip-path="url(#clip0_16_155)">
<mask id="mask0_16_155" style="mask-type:alpha" maskUnits="userSpaceOnUse" x="125" y="50" width="100" height="50">
<rect x="125" y="50" width="100" height="50" fill="white"/>
</mask>
<g mask="url(#mask0_16_155)">
<path fill-rule="evenodd" clip-rule="evenodd" d="M175 100C202.614 100 225 77.6142 225 50C225 22.3858 202.614 0 175 0C147.386 0 125 22.3858 125 50C125 77.6142 147.386 100 175 100ZM175 75C188.807 75 200 63.8071 200 50C200 36.1929 188.807 25 175 25C161.193 25 150 36.1929 150 50C150 63.8071 161.193 75 175 75Z" fill="#4F46E5"/>
</g>
<rect x="200" width="25" height="50" rx="12.5" fill="#4F46E5"/>
<rect x="200" y="25" width="25" height="25" fill="#4F46E5"/>
<rect x="125" y="25" width="25" height="25" fill="#4F46E5"/>
<rect x="125" width="25" height="50" rx="12.5" fill="#4F46E5"/>
<mask id="mask1_16_155" style="mask-type:alpha" maskUnits="userSpaceOnUse" x="250" y="0" width="100" height="50">
<rect x="350" y="50" width="100" height="50" transform="rotate(-180 350 50)" fill="white"/>
</mask>
<g mask="url(#mask1_16_155)">
<path fill-rule="evenodd" clip-rule="evenodd" d="M300 0C272.386 0 250 22.3858 250 50C250 77.6142 272.386 100 300 100C327.614 100 350 77.6142 350 50C350 22.3858 327.614 0 300 0ZM300 25C286.193 25 275 36.1929 275 50C275 63.8071 286.193 75 300 75C313.807 75 325 63.8071 325 50C325 36.1929 313.807 25 300 25Z" fill="#4F46E5"/>
</g>
<rect x="275" y="100" width="25" height="50" rx="12.5" transform="rotate(-180 275 100)" fill="#4F46E5"/>
<rect x="275" y="75" width="25" height="25" transform="rotate(-180 275 75)" fill="#4F46E5"/>
<rect x="350" y="75" width="25" height="25" transform="rotate(-180 350 75)" fill="#4F46E5"/>
<rect x="350" y="100" width="25" height="50" rx="12.5" transform="rotate(-180 350 100)" fill="#4F46E5"/>
<mask id="mask2_16_155" style="mask-type:alpha" maskUnits="userSpaceOnUse" x="375" y="0" width="100" height="50">
<rect x="475" y="50" width="100" height="50" transform="rotate(-180 475 50)" fill="white"/>
</mask>
<g mask="url(#mask2_16_155)">
<path fill-rule="evenodd" clip-rule="evenodd" d="M425 0C397.386 0 375 22.3858 375 50C375 77.6142 397.386 100 425 100C452.614 100 475 77.6142 475 50C475 22.3858 452.614 0 425 0ZM425 25C411.193 25 400 36.1929 400 50C400 63.8071 411.193 75 425 75C438.807 75 450 63.8071 450 50C450 36.1929 438.807 25 425 25Z" fill="#4F46E5"/>
</g>
<rect x="400" y="100" width="25" height="50" rx="12.5" transform="rotate(-180 400 100)" fill="#4F46E5"/>
<rect x="400" y="75" width="25" height="25" transform="rotate(-180 400 75)" fill="#4F46E5"/>
<rect x="475" y="75" width="25" height="25" transform="rotate(-180 475 75)" fill="#4F46E5"/>
<rect x="475" y="100" width="25" height="50" rx="12.5" transform="rotate(-180 475 100)" fill="#4F46E5"/>
<mask id="mask3_16_155" style="mask-type:alpha" maskUnits="userSpaceOnUse" x="675" y="0" width="100" height="50">
<rect x="775" y="50" width="100" height="50" transform="rotate(-180 775 50)" fill="white"/>
</mask>
<g mask="url(#mask3_16_155)">
<path fill-rule="evenodd" clip-rule="evenodd" d="M725 0C697.386 0 675 22.3858 675 50C675 77.6142 697.386 100 725 100C752.614 100 775 77.6142 775 50C775 22.3858 752.614 0 725 0ZM725 25C711.193 25 700 36.1929 700 50C700 63.8071 711.193 75 725 75C738.807 75 750 63.8071 750 50C750 36.1929 738.807 25 725 25Z" fill="#4F46E5"/>
</g>
<rect x="700" y="100" width="25" height="50" rx="12.5" transform="rotate(-180 700 100)" fill="#4F46E5"/>
<rect x="700" y="75" width="25" height="25" transform="rotate(-180 700 75)" fill="#4F46E5"/>
<rect x="775" y="75" width="25" height="25" transform="rotate(-180 775 75)" fill="#4F46E5"/>
<rect x="775" y="100" width="25" height="50" rx="12.5" transform="rotate(-180 775 100)" fill="#4F46E5"/>
<mask id="mask4_16_155" style="mask-type:alpha" maskUnits="userSpaceOnUse" x="800" y="0" width="50" height="100">
<rect x="850" width="100" height="50" transform="rotate(90 850 0)" fill="white"/>
</mask>
<g mask="url(#mask4_16_155)">
<path fill-rule="evenodd" clip-rule="evenodd" d="M800 50C800 77.6142 822.386 100 850 100C877.614 100 900 77.6142 900 50C900 22.3858 877.614 0 850 0C822.386 0 800 22.3858 800 50ZM825 50C825 63.8071 836.193 75 850 75C863.807 75 875 63.8071 875 50C875 36.1929 863.807 25 850 25C836.193 25 825 36.1929 825 50Z" fill="#4F46E5"/>
</g>
<rect x="900" y="75" width="25" height="50" rx="12.5" transform="rotate(90 900 75)" fill="#4F46E5"/>
<rect x="875" y="75" width="25" height="25" transform="rotate(90 875 75)" fill="#4F46E5"/>
<rect x="875" width="25" height="25" transform="rotate(90 875 0)" fill="#4F46E5"/>
<rect x="900" width="25" height="50" rx="12.5" transform="rotate(90 900 0)" fill="#4F46E5"/>
<circle cx="849.5" cy="49.5" r="12.5" fill="#4F46E5"/>
<mask id="mask5_16_155" style="mask-type:alpha" maskUnits="userSpaceOnUse" x="0" y="150" width="100" height="50">
<rect y="150" width="100" height="50" fill="white"/>
</mask>
<g mask="url(#mask5_16_155)">
<path fill-rule="evenodd" clip-rule="evenodd" d="M50 200C77.6142 200 100 177.614 100 150C100 122.386 77.6142 100 50 100C22.3858 100 0 122.386 0 150C0 177.614 22.3858 200 50 200ZM50 175C63.8071 175 75 163.807 75 150C75 136.193 63.8071 125 50 125C36.1929 125 25 136.193 25 150C25 163.807 36.1929 175 50 175Z" fill="#4F46E5"/>
</g>
<circle cx="12.5" cy="149.5" r="12.5" fill="#4F46E5"/>
<rect x="75" y="125" width="25" height="25" fill="#4F46E5"/>
<mask id="mask6_16_155" style="mask-type:alpha" maskUnits="userSpaceOnUse" x="0" y="0" width="50" height="100">
<rect x="50" width="100" height="50" transform="rotate(90 50 0)" fill="white"/>
</mask>
<g mask="url(#mask6_16_155)">
<path fill-rule="evenodd" clip-rule="evenodd" d="M0 50.0642C0 77.6785 22.3858 100.064 50 100.064C77.6142 100.064 100 77.6785 100 50.0642C100 22.45 77.6142 0.0642395 50 0.0642395C22.3858 0.0642395 0 22.45 0 50.0642ZM25 50.0642C25 63.8714 36.1929 75.0642 50 75.0642C63.8071 75.0642 75 63.8714 75 50.0642C75 36.2571 63.8071 25.0642 50 25.0642C36.1929 25.0642 25 36.2571 25 50.0642Z" fill="#4F46E5"/>
</g>
<circle cx="51.2714" cy="87.5" r="12.5" transform="rotate(90 51.2714 87.5)" fill="#4F46E5"/>
<circle cx="51.2714" cy="12.5" r="12.5" transform="rotate(90 51.2714 12.5)" fill="#4F46E5"/>
<circle cx="50.5" cy="50.5" r="12.5" fill="#4F46E5"/>
<path d="M75 12.5C75 5.59644 80.5964 0 87.5 0V0C94.4036 0 100 5.59644 100 12.5V137.5C100 144.404 94.4036 150 87.5 150V150C80.5964 150 75 144.404 75 137.5V12.5Z" fill="#4F46E5"/>
<circle cx="512.5" cy="87.5" r="12.5" fill="#4F46E5"/>
<path fill-rule="evenodd" clip-rule="evenodd" d="M550 50C550 77.6142 572.386 100 600 100C627.614 100 650 77.6142 650 50C650 22.3858 627.614 0 600 0C572.386 0 550 22.3858 550 50ZM575 50C575 63.8071 586.193 75 600 75C613.807 75 625 63.8071 625 50C625 36.1929 613.807 25 600 25C586.193 25 575 36.1929 575 50Z" fill="#4F46E5"/>
</g>
<defs>
<clipPath id="clip0_16_155">
<rect width="900" height="200" fill="white"/>
</clipPath>
</defs>
</svg>
